<svg xmlns="http://www.w3.org/2000/svg" viewBox="0 0 64 64" role="img" aria-labelledby="t"><title id="t">Regalo</title><defs><linearGradient id="a" x1="0" y1="0" x2="0" y2="1"><stop offset="0" stop-color="#f8dfa0"/><stop offset="1" stop-color="#e2b04c"/></linearGradient><linearGradient id="b" x1="0" y1="0" x2="0" y2="1"><stop offset="0" stop-color="#f1c76d"/><stop offset="1" stop-color="#d79f35"/></linearGradient></defs><rect x="10" y="29" width="44" height="27" rx="6" fill="url(#a)"/><rect x="7" y="20" width="50" height="13" rx="5" fill="url(#b)"/><rect x="28" y="20" width="8" height="36" fill="#1f6d4a"/><path d="M32 20c-7 0-13-3-13-7.500C19 9 22 7.500 25 8.500c4 1.300 7 6.500 7 11.500Z" fill="#2a8a5e"/><path d="M32 20c7 0 13-3 13-7.500C45 9 42 7.500 39 8.500c-4 1.300-7 6.500-7 11.500Z" fill="#2a8a5e"/><circle cx="32" cy="20" r="4" fill="#1f6d4a"/></svg>
